<svg width="24" height="24" viewBox="0 0 24 24" fill="none" xmlns="http://www.w3.org/2000/svg">
  <rect width="24" height="24" rx="4" fill="#2563EB"/>
  <path d="M19 6.5H16V5C16 4.46957 15.7893 3.96086 15.4142 3.58579C15.0391 3.21071 14.5304 3 14 3H10C9.46957 3 8.96086 3.21071 8.58579 3.58579C8.21071 3.96086 8 4.46957 8 5V6.5H5C4.46957 6.5 3.96086 6.71071 3.58579 7.08579C3.21071 7.46086 3 7.96957 3 8.5V18C3 18.5304 3.21071 19.0391 3.58579 19.4142C3.96086 19.7893 4.46957 20 5 20H19C19.5304 20 20.0391 19.7893 20.4142 19.4142C20.7893 19.0391 21 18.5304 21 18V8.5C21 7.96957 20.7893 7.46086 20.4142 7.08579C20.0391 6.71071 19.5304 6.5 19 6.5ZM10 5H14V6.5H10V5ZM19 18H5V8.5H19V18Z" fill="white"/>
  <path d="M7 11.5H10V14.5H7V11.5Z" fill="white"/>
  <path d="M12 11.5H17V14.5H12V11.5Z" fill="white"/>
</svg>